/* XPM */
static char *_180fb80671e4e7aa623bfbb0739abfazV4zgmhtvJ5IAY8P[] = {
/* columns rows colors chars-per-pixel */
"64 64 8 1 ",
"  c #3E2723",
". c #4E342E",
"X c #5D4037",
"o c #6D4C41",
"O c #9C5D00",
"+ c #FF9800",
"@ c #FFC107",
"# c #FFEB3B",
/* pixels */
"                    ooooXXXXoooo                    ooooooooXXXX",
"                    ooooXXXXoooo                    ooooooooXXXX",
"                    ooooXXXXoooo                    ooooooooXXXX",
"                    ooooX++++++++++++++             ooooooooXXXX",
"    XXXXoooo....    oo++++++++++++++++++++oooooo    XXXXooooXXXX",
"    XXXXoooo....   ++++++++++++++++++++++++++ooo    XXXXooooXXXX",
"    XXXXoooo.... ++++++++++++++++++++++++++++++o    XXXXooooXXXX",
"    XXXXoooo....++++++++++++++++++++++++++++++++    XXXXooooXXXX",
"    ....oooo..++++++++++++++++++++++++++++++++++++  XXXXXXXXXXXX",
"    ....oooo.++++++++++++++++++++++++++++++++++++++ XXXXXXXXXXXX",
"    ....oooo++++++++++++++++++++++++++++++++++++++++XXXXXXXXXXXX",
"    ....ooo++++++++++++++++++++++++++++++++++++++++++XXXXXXXXXXX",
"    XXXXXX++++++++++++++++++++++++++++++++++++++++++++ooXXXXoooo",
"    XXXXX++++++++++++++++++++++++++++++++++++++++++++++oXXXXoooo",
"    XXXX++++++++++++++@@@@@@@@@@++++++++++++++++++++++++XXXXoooo",
"    XXXX++++++++++++@@@@@@@@@@@@@@++++++++++++++++++++++XXXXoooo",
"    ooo++++++++++++@@@@@@@@@@@@@@@@++++++++++++++++++++++XXXoooo",
"    oo++++++++++++@@@@@@@@@@@@@@@@@@++++++++++++++++++++++XXoooo",
"    oo+++++++++++@@@@@@@@@@@@@@@@@@@@+++++++++++++++++++++XXoooo",
"    o+++++++++++@@@@@@######@@@@@@@@@@+++++++++++++++++++++Xoooo",
"    .+++++++++++@@@@@########@@@@@@@@@+++++++++++++++++++++ooooo",
"    .++++++++++@@@@@##########@@@@@@@@@++++++++++++++++++++ooooo",
"    +++++++++++@@@@@##########@@@@@@@@@+++++++++++++++++++++oooo",
"    +++++++++++@@@@@##########@@@@@@@@@+++++++++++++++++++++oooo",
"    +++++++++++@@@@@##########@@@@@@@@@+++++++++++++++++++++oooo",
"   ++++++++++++@@@@@##########@@@@@@@@@++++++++++++++++++++++ooo",
"   ++++++++++++@@@@@##########@@@@@@@@@++++++++++++++++++++++ooo",
"   ++++++++++++@@@@@@########@@@@@@@@@@++++++++++++++++++++++ooo",
"   ++++++++++++@@@@@@@######@@@@@@@@@@@++++++++++++++++++++++ooo",
"   ++++++++++++@@@@@@@@@@@@@@@@@@@@@@@@+++++++++++++++++++++Oooo",
"   ++++++++++++@@@@@@@@@@@@@@@@@@@@@@@@+++++++++++++++++++++Oooo",
"   +++++++++++++@@@@@@@@@@@@@@@@@@@@@@++++++++++++++++++++++Oooo",
"   +++++++++++++@@@@@@@@@@@@@@@@@@@@@@+++++++++++++++++++++OO   ",
"   ++++++++++++++@@@@@@@@@@@@@@@@@@@@++++++++++++++++++++++OO   ",
"   +++++++++++++++@@@@@@@@@@@@@@@@@@+++++++++++++++++++++++OO   ",
"   ++++++++++++++++@@@@@@@@@@@@@@@@+++++++++++++++++++++++OOO   ",
"   +++++++++++++++++@@@@@@@@@@@@@@++++++++++++++++++++++++OOOooo",
"   +++++++++++++++++++@@@@@@@@@@++++++++++++++++++++++++++OOOooo",
"   +++++++++++++++++++++++++++++++++++++++++++++++++++++++OOOooo",
"    +++++++++++++++++++++++++++++++++++++++++++++++++++++OOOoooo",
"    +++++++++++++++++++++++++++++++++++++++++++++++++++++OOOXXXX",
"    ++++++++++++++++++++++++++++++++++++++++++++++++++++OOOOXXXX",
"    o+++++++++++++++++++++++++++++++++++++++++++++++++++OOOoXXXX",
"    o+++++++++++++++++++++++++++++++++++++++++++++++++++OOOoXXXX",
"    o++++++++++++++++++++++++++++++++++++++++++++++++++OOOOXoooo",
"    oo+++++++++++++++++++++++++++++++++++++++++++++++++OOOXXoooo",
"    oo+++++++++++++++++++++++++++++++++++++++++++++++++OOOXXoooo",
"    ooo+++++++++++++++++++++++++++++++++++++++++++++++OOOXXXoooo",
"    oooo+++++++++++++++++++++++++++++++++++++++++++++OOOooooXXXX",
"    oooo++++++++++++++++++++++++++++++++++++++++++++OOOOooooXXXX",
"    oooo.++++++++++++++++++++++++++++++++++++++++++OOOOXooooXXXX",
"    oooo..++++++++++++++++++++++++++++++++++++++++OOOOXXooooXXXX",
"    oooo...++++++++++++++++++++++++++++++++++++++OOOOoooooooXXXX",
"    oooo....++++++++++++++++++++++++++++++++++++OOOOooooooooXXXX",
"    oooo....o+++++++++++++++++++++++++++++++++OOOOO ooooooooXXXX",
"    oooo....oo++++++++++++++++++++++++++++++OOOOOO  ooooooooXXXX",
"    XXXXXXXX....OOO+++++++++++++++++++++++OOOOOO    ooooXXXXXXXX",
"    XXXXXXXX.... OOOOO++++++++++++++++++OOOOOOOo    ooooXXXXXXXX",
"    XXXXXXXX....   OOOOOO+++++++++++++OOOOOOOooo    ooooXXXXXXXX",
"    XXXXXXXX....    ooOOOOOOOOOOOOOOOOOOOOXXoooo    ooooXXXXXXXX",
"    XXXXXXXXoooo    ooooXOOOOOOOOOOOOOOoXXXXoooo    ooooXXXXoooo",
"    XXXXXXXXoooo    ooooXXXXoooo    ooooXXXXoooo    ooooXXXXoooo",
"    XXXXXXXXoooo    ooooXXXXoooo    ooooXXXXoooo    ooooXXXXoooo",
"    XXXXXXXXoooo    ooooXXXXoooo    ooooXXXXoooo    ooooXXXXoooo"
};
