/* XPM */
static char *d669de4a9b194b3eb36ac83ad4254d5eDFuE1q5ELPpixypA[] = {
/* columns rows colors chars-per-pixel */
"64 64 13 1 ",
"  c #3E2723",
". c #263238",
"X c #4E342E",
"o c #5D4037",
"O c #37474F",
"+ c #6D4C41",
"@ c #455A64",
"# c #546E7A",
"$ c #607D8B",
"% c #78909C",
"& c #90A4AE",
"* c #B0BEC5",
"= c #CFD8DC",
/* pixels */
"====                ++++oooo&&&&&&&&&&&&********    ++++++++oooo",
"====                ++++oooo&&&&&&&&&&&&********    ++++++++oooo",
"====                ++++oooo&&&&&&&&&&&&********    ++++++++oooo",
"====                ++++oooo&&&&&&&&&&&&********    ++++++++oooo",
"    oooo&&&&XXXX    ++++&&&&************++++++++    ****++++oooo",
"    oooo&&&&XXXX    ++++&&&&************++++++++    ****++++oooo",
"    oooo&&&&XXXX    ++++&&&&************++++++++    ****++++oooo",
"    oooo&&&&XXXX    ++++&&&&************++++++++    ****++++oooo",
"====&&&&++++XXXX    &&&&****%%%%%%%%%%%%%%%%++++    ****oooooooo",
"====&&&&++++XXXX    &&&&****%%%%%%%%%%%%%%%%++++    ****oooooooo",
"====&&&&++++XXXX    &&&&****%%%%%%%%%%%%%%%%++++    ****oooooooo",
"====&&&&++++XXXX    &&&&****%%%%%%%%%%%%%%%%++++    ****oooooooo",
"    &&&&oooo++++&&&&****%%%%&&&&&&&&&&&&&&&&%%%%    ++++oooo++++",
"    &&&&oooo++++&&&&****%%%%&&&&&&&&&&&&&&&&%%%%    ++++oooo++++",
"    &&&&oooo++++&&&&****%%%%&&&&&&&&&&&&&&&&%%%%    ++++oooo++++",
"    &&&&oooo++++&&&&****%%%%&&&&&&&&&&&&&&&&%%%%    ++++oooo++++",
"    ++++oooo&&&&****%%%%&&&&OOOOOOOO@@@@@@@@&&&&%%%%oooooooo====",
"    ++++oooo&&&&****%%%%&&&&OOOOOOOO@@@@@@@@&&&&%%%%oooooooo====",
"    ++++oooo&&&&****%%%%&&&&OOOOOOOO@@@@@@@@&&&&%%%%oooooooo====",
"    ++++oooo&&&&****%%%%&&&&OOOOOOOO@@@@@@@@&&&&%%%%oooooooo====",
"    XXXX&&&&****%%%%&&&&OOOOOOOOOOOOOOOO@@@@####&&&&%%%%++++++++",
"    XXXX&&&&****%%%%&&&&OOOOOOOOOOOOOOOO@@@@####&&&&%%%%++++++++",
"    XXXX&&&&****%%%%&&&&OOOOOOOOOOOOOOOO@@@@####&&&&%%%%++++++++",
"    XXXX&&&&****%%%%&&&&OOOOOOOOOOOOOOOO@@@@####&&&&%%%%++++++++",
"    XXXX&&&&%%%%&&&&@@@@OOOO........OOOO@@@@####$$$$&&&&oooo====",
"    XXXX&&&&%%%%&&&&@@@@OOOO........OOOO@@@@####$$$$&&&&oooo====",
"    XXXX&&&&%%%%&&&&@@@@OOOO........OOOO@@@@####$$$$&&&&oooo====",
"    XXXX&&&&%%%%&&&&@@@@OOOO........OOOO@@@@####$$$$&&&&oooo====",
"    ====&&&&%%%%&&&&@@@@OOOO........OOOO@@@@####$$$$&&&&oooo====",
"    ====&&&&%%%%&&&&@@@@OOOO........OOOO@@@@####$$$$&&&&oooo====",
"    ====&&&&%%%%&&&&@@@@OOOO........OOOO@@@@####$$$$&&&&oooo====",
"    ====&&&&%%%%&&&&@@@@OOOO........OOOO@@@@####$$$$&&&&oooo====",
"====++++&&&&%%%%&&&&@@@@OOOOOOOOOOOOOOOO@@@@####$$$$&&&&        ",
"====++++&&&&%%%%&&&&@@@@OOOOOOOOOOOOOOOO@@@@####$$$$&&&&        ",
"====++++&&&&%%%%&&&&@@@@OOOOOOOOOOOOOOOO@@@@####$$$$&&&&        ",
"====++++&&&&%%%%&&&&@@@@OOOOOOOOOOOOOOOO@@@@####$$$$&&&&        ",
"    XXXX&&&&%%%%&&&&####@@@@OOOOOOOO@@@@####$$$$%%%%&&&&oooo++++",
"    XXXX&&&&%%%%&&&&####@@@@OOOOOOOO@@@@####$$$$%%%%&&&&oooo++++",
"    XXXX&&&&%%%%&&&&####@@@@OOOOOOOO@@@@####$$$$%%%%&&&&oooo++++",
"    XXXX&&&&%%%%&&&&####@@@@OOOOOOOO@@@@####$$$$%%%%&&&&oooo++++",
"====++++&&&&%%%%&&&&$$$$####@@@@@@@@####$$$$%%%%&&&&&&&&++++oooo",
"====++++&&&&%%%%&&&&$$$$####@@@@@@@@####$$$$%%%%&&&&&&&&++++oooo",
"====++++&&&&%%%%&&&&$$$$####@@@@@@@@####$$$$%%%%&&&&&&&&++++oooo",
"====++++&&&&%%%%&&&&$$$$####@@@@@@@@####$$$$%%%%&&&&&&&&++++oooo",
"    ++++&&&&****%%%%&&&&$$$$########$$$$%%%%&&&&****&&&&oooo++++",
"    ++++&&&&****%%%%&&&&$$$$########$$$$%%%%&&&&****&&&&oooo++++",
"    ++++&&&&****%%%%&&&&$$$$########$$$$%%%%&&&&****&&&&oooo++++",
"    ++++&&&&****%%%%&&&&$$$$########$$$$%%%%&&&&****&&&&oooo++++",
"    ++++XXXX&&&&****%%%%&&&&$$$$$$$$%%%%&&&&****&&&&oooo++++oooo",
"    ++++XXXX&&&&****%%%%&&&&$$$$$$$$%%%%&&&&****&&&&oooo++++oooo",
"    ++++XXXX&&&&****%%%%&&&&$$$$$$$$%%%%&&&&****&&&&oooo++++oooo",
"    ++++XXXX&&&&****%%%%&&&&$$$$$$$$%%%%&&&&****&&&&oooo++++oooo",
"    ====XXXX++++&&&&****%%%%&&&&%%%%&&&&****&&&&    ++++$$$$oooo",
"    ====XXXX++++&&&&****%%%%&&&&%%%%&&&&****&&&&    ++++$$$$oooo",
"    ====XXXX++++&&&&****%%%%&&&&%%%%&&&&****&&&&    ++++$$$$oooo",
"    ====XXXX++++&&&&****%%%%&&&&%%%%&&&&****&&&&    ++++$$$$oooo",
"====oooooooo====    &&&&****%%%%&&&&****&&&&++++    ++++oooo$$$$",
"====oooooooo====    &&&&****%%%%&&&&****&&&&++++    ++++oooo$$$$",
"====oooooooo====    &&&&****%%%%&&&&****&&&&++++    ++++oooo$$$$",
"====oooooooo====    &&&&****%%%%&&&&****&&&&++++    ++++oooo$$$$",
"    ========++++    ++++&&&&&&&&&&&&&&&&oooo++++    ++++$$$$++++",
"    ========++++    ++++&&&&&&&&&&&&&&&&oooo++++    ++++$$$$++++",
"    ========++++    ++++&&&&&&&&&&&&&&&&oooo++++    ++++$$$$++++",
"    ========++++    ++++&&&&&&&&&&&&&&&&oooo++++    ++++$$$$++++"
};
