/* XPM */
static char *_c3b880e9cba4881983fd9ec2a459657HIKsj918rAzN0tRj[] = {
/* columns rows colors chars-per-pixel */
"64 64 4 1 ",
"  c #3E2723",
". c #4E342E",
"X c #5D4037",
"o c #6D4C41",
/* pixels */
"                    ooooXXXXoooo                    ooooooooXXXX",
"                    ooooXXXXoooo                    ooooooooXXXX",
"                    ooooXXXXoooo                    ooooooooXXXX",
"                    ooooXXXXoooo                    ooooooooXXXX",
"    XXXXoooo....    oooo....oooo    XXXXoooooooo    XXXXooooXXXX",
"    XXXXoooo....    oooo....oooo    XXXXoooooooo    XXXXooooXXXX",
"    XXXXoooo....    oooo....oooo    XXXXoooooooo    XXXXooooXXXX",
"    XXXXoooo....    oooo....oooo    XXXXoooooooo    XXXXooooXXXX",
"    ....oooo....    oooo....oooo    XXXX....oooo    XXXXXXXXXXXX",
"    ....oooo....    oooo....oooo    XXXX....oooo    XXXXXXXXXXXX",
"    ....oooo....    oooo....oooo    XXXX....oooo    XXXXXXXXXXXX",
"    ....oooo....    oooo....oooo    XXXX....oooo    XXXXXXXXXXXX",
"    XXXXXXXXoooo    ooooXXXXoooo    oooo....oooo    ooooXXXXoooo",
"    XXXXXXXXoooo    ooooXXXXoooo    oooo....oooo    ooooXXXXoooo",
"    XXXXXXXXoooo    ooooXXXXoooo    oooo....oooo    ooooXXXXoooo",
"    XXXXXXXXoooo    ooooXXXXoooo    oooo....oooo    ooooXXXXoooo",
"    ooooXXXXoooo    ooooXXXX....    XXXXXXXXoooo    XXXXXXXXoooo",
"    ooooXXXXoooo    ooooXXXX....    XXXXXXXXoooo    XXXXXXXXoooo",
"    ooooXXXXoooo    ooooXXXX....    XXXXXXXXoooo    XXXXXXXXoooo",
"    ooooXXXXoooo    ooooXXXX....    XXXXXXXXoooo    XXXXXXXXoooo",
"    ....oooooooo    XXXXoooo....    XXXXoooo....    XXXXoooooooo",
"    ....oooooooo    XXXXoooo....    XXXXoooo....    XXXXoooooooo",
"    ....oooooooo    XXXXoooo....    XXXXoooo....    XXXXoooooooo",
"    ....oooooooo    XXXXoooo....    XXXXoooo....    XXXXoooooooo",
"    ....oooooooo    XXXXoooo....    XXXXoooo....    XXXXXXXXoooo",
"    ....oooooooo    XXXXoooo....    XXXXoooo....    XXXXXXXXoooo",
"    ....oooooooo    XXXXoooo....    XXXXoooo....    XXXXXXXXoooo",
"    ....oooooooo    XXXXoooo....    XXXXoooo....    XXXXXXXXoooo",
"    ........oooo    XXXXoooooooo    ooooXXXX....    ooooXXXXoooo",
"    ........oooo    XXXXoooooooo    ooooXXXX....    ooooXXXXoooo",
"    ........oooo    XXXXoooooooo    ooooXXXX....    ooooXXXXoooo",
"    ........oooo    XXXXoooooooo    ooooXXXX....    ooooXXXXoooo",
"    oooo....XXXX                    ....oooooooo                ",
"    oooo....XXXX                    ....oooooooo                ",
"    oooo....XXXX                    ....oooooooo                ",
"    oooo....XXXX                    ....oooooooo                ",
"    ....XXXXXXXX    oooo....oooo    ....XXXXoooo    ooooXXXXoooo",
"    ....XXXXXXXX    oooo....oooo    ....XXXXoooo    ooooXXXXoooo",
"    ....XXXXXXXX    oooo....oooo    ....XXXXoooo    ooooXXXXoooo",
"    ....XXXXXXXX    oooo....oooo    ....XXXXoooo    ooooXXXXoooo",
"    ooooXXXXoooo    XXXXoooo....    ....XXXXoooo    XXXXooooXXXX",
"    ooooXXXXoooo    XXXXoooo....    ....XXXXoooo    XXXXooooXXXX",
"    ooooXXXXoooo    XXXXoooo....    ....XXXXoooo    XXXXooooXXXX",
"    ooooXXXXoooo    XXXXoooo....    ....XXXXoooo    XXXXooooXXXX",
"    oooooooo....    XXXXoooo....    ooooXXXXXXXX    XXXXXXXXoooo",
"    oooooooo....    XXXXoooo....    ooooXXXXXXXX    XXXXXXXXoooo",
"    oooooooo....    XXXXoooo....    ooooXXXXXXXX    XXXXXXXXoooo",
"    oooooooo....    XXXXoooo....    ooooXXXXXXXX    XXXXXXXXoooo",
"    oooo........    XXXXoooo....    ooooooooXXXX    XXXXooooXXXX",
"    oooo........    XXXXoooo....    ooooooooXXXX    XXXXooooXXXX",
"    oooo........    XXXXoooo....    ooooooooXXXX    XXXXooooXXXX",
"    oooo........    XXXXoooo....    ooooooooXXXX    XXXXooooXXXX",
"    oooo....oooo    XXXXXXXXoooo    ooooXXXXXXXX    ooooooooXXXX",
"    oooo....oooo    XXXXXXXXoooo    ooooXXXXXXXX    ooooooooXXXX",
"    oooo....oooo    XXXXXXXXoooo    ooooXXXXXXXX    ooooooooXXXX",
"    oooo....oooo    XXXXXXXXoooo    ooooXXXXXXXX    ooooooooXXXX",
"    XXXXXXXX....    ooooXXXXoooo    ooooXXXXoooo    ooooXXXXXXXX",
"    XXXXXXXX....    ooooXXXXoooo    ooooXXXXoooo    ooooXXXXXXXX",
"    XXXXXXXX....    ooooXXXXoooo    ooooXXXXoooo    ooooXXXXXXXX",
"    XXXXXXXX....    ooooXXXXoooo    ooooXXXXoooo    ooooXXXXXXXX",
"    XXXXXXXXoooo    ooooXXXXoooo    ooooXXXXoooo    ooooXXXXoooo",
"    XXXXXXXXoooo    ooooXXXXoooo    ooooXXXXoooo    ooooXXXXoooo",
"    XXXXXXXXoooo    ooooXXXXoooo    ooooXXXXoooo    ooooXXXXoooo",
"    XXXXXXXXoooo    ooooXXXXoooo    ooooXXXXoooo    ooooXXXXoooo"
};
