/* XPM */
static char *d8ccfa147d8841598535a5ea343d9b97h7J60pv2Wp4ibpIX[] = {
/* columns rows colors chars-per-pixel */
"64 64 12 1 ",
"  c #3E2723",
". c #4E342E",
"X c #5D4037",
"o c #6D4C41",
"O c #01579B",
"+ c #0277BD",
"@ c #0288D1",
"# c #039BE5",
"$ c #29B6F6",
"% c #81D4FA",
"& c #E0F7FA",
"* c white",
/* pixels */
"                    ooooXXXXoooo                    ooooooooXXXX",
"                    ooooXXXXoooo                    ooooooooXXXX",
"                    ooooXXXXoooo                    ooooooooXXXX",
"                    ooooXXXXoooo                    ooooooooXXXX",
"    XXXXoooo....    oooo....oooo    XXXXoooooooo    XXXXooooXXXX",
"    XXXXoooo....    oooo....oooo    XXXXoooooooo    XXXXooooXXXX",
"    XXXXoooo....    ++++++++oooo    ++++++++oooo    XXXXooooXXXX",
"    XXXXoooo....    ++++++++oooo    ++++++++oooo    XXXXooooXXXX",
"    ....oooo....    ++++++++oooo    ++++++++oooo    XXXXXXXXXXXX",
"    ....oooo....    ++++++++oooo    ++++++++oooo    XXXXXXXXXXXX",
"    .$$$$$$$$$$$$+++++++$$$$$$$$$$$$$$$$+++++++$$$$$$$$$$$$XXXXX",
"    .$$$$$$$$$$$$+++++++$$$$$$$$$$$$$$$$+++++++$$$$$$$$$$$$XXXXX",
"    X$$$$$$$$$$$$+++++++$$$$$$$$$$$$$$$$+++++++$$$$$$$$$$$$Xoooo",
"    X$$$$$$$$$$$$+++++++$$$$$$$$$$$$$$$$+++++++$$$$$$$$$$$$Xoooo",
"    X$$$$$$$$$$$$$$$$$$$$$$$$$$$$$$$$$$$$$$$$$$$$$$$$$$$$$$Xoooo",
"    X$$$$$$$$$$$$$$$$$$$$$$$$$$$$$$$$$$$$$$$$$$$$$$$$$$$$$$Xoooo",
"    o$$$$$$$$$$$$$$$$$$$$$$$$$$$$$$$$$$$$$$$$$$$$$$$$$$$$$$Xoooo",
"    o$$$$$$$$$$$$$$$$$$$$$$$$$$$$$$$$$$$$$$$$$$$$$$$$$$$$$$Xoooo",
"    o$$$$$$$$$$$$***OOOOOOOO$$$$$$$$****OOOOOOO$$$$$$$$$$$$Xoooo",
"    o$$$$$$$$$$$$***OOOOOOOO$$$$$$$$****OOOOOOO$$$$$$$$$$$$Xoooo",
"    .$$$$$$$$$$$$***OOOOOOOO$$$$$$$$****OOOOOOO$$$$$$$$$$$$ooooo",
"    .$$$$$$$$$$$$***OOOOOOOO$$$$$$$$****OOOOOOO$$$$$$$$$$$$ooooo",
"    .$$$$$$$$$$$$&&&OOOOOOOO$$$$$$$$&&&&OOOOOOO$$$$$$$$$$$$ooooo",
"    .$$$$$$$$$$$$&&&OOOOOOOO$$$$$$$$&&&&OOOOOOO$$$$$$$$$$$$ooooo",
"    .$$$$$$$$$$$$&&&OOOOOOOO$$$$$$$$&&&&OOOOOOO$$$$$$$$$$$$Xoooo",
"    .$$$$$$$$$$$$&&&OOOOOOOO$$$$$$$$&&&&OOOOOOO$$$$$$$$$$$$Xoooo",
"    .$$$$$$$$$$$$&&&OOOOOOOO$$$$$$$$&&&&OOOOOOO$$$$$$$$$$$$Xoooo",
"    .$$$$$$$$$$$$&&&OOOOOOOO$$$$$$$$&&&&OOOOOOO$$$$$$$$$$$$Xoooo",
"    .$$$$$$$$$$$$&&&OOOOOOOO$$$$$$$$&&&&OOOOOOO$$$$$$$$$$$$Xoooo",
"    .$$$$$$$$$$$$OOOOOOOOOOO$$$$$$$$OOOOOOOOOOO$$$$$$$$$$$$Xoooo",
"    .$$$$$$$$$$$$OOOOOOOOOOO$$$$$$$$OOOOOOOOOOO$$$$$$$$$$$$Xoooo",
"    .$$$$$$$$$$$$OOOOOOOOOOO$$$$$$$$OOOOOOOOOOO$$$$$$$$$$$$Xoooo",
"    o$$$$$$$$$$$$OOOOOOOOOOO$$$$$$$$OOOOOOOOOOO$$$$$$$$$$$$     ",
"    o$$$$$$$$$$$$+++++++++++$$$$$$$$+++++++++++$$$$$$$$$$$$     ",
"    o$$$$$$$$$$$$+++++++++++$$$$$$$$+++++++++++$$$$$$$$$$$$     ",
"    o$$$$$$$$$$$$+++++++++++$$$$$$$$+++++++++++$$$$$$$$$$$$     ",
"    .$$$$$$$$$$$$+++++++++++$$$$$$$$+++++++++++$$$$$$$$$$$$Xoooo",
"    .$$$$$$$$$$$$$$$$$$$$$$$$$$$$$$$$$$$$$$$$$$$$$$$$$$$$$$Xoooo",
"    .$$$$$$$$$$$$$$$$$$$$$$$$$$$$$$$$$$$$$$$$$$$$$$$$$$$$$$Xoooo",
"    .$$$$$$$$$$$$$$$$$$$$$$$$$$$$$$$$$$$$$$$$$$$$$$$$$$$$$$Xoooo",
"    o$$$$$$$$$$$$$$$$$$$$$$$$$$$$$$$$$$$$$$$$$$$$$$$$$$$$$$oXXXX",
"    o$$$$$$$$$$$$$$$########################$$$$$$$$$$$$$$$oXXXX",
"    o$$$$$$$$$$$$$$$########################$$$$$$$$$$$$$$$oXXXX",
"    o$$$$$$$$$$$$$$$########################$$$$$$$$$$$$$$$oXXXX",
"    o$$$$$$$$$$$$$$$########################$$$$$$$$$$$$$$$Xoooo",
"    o$$$$$$$$$$$$###@@@@@@@@@@@@@@@@@@@@@@@@###$$$$$$$$$$$$Xoooo",
"    o$$$$$$$$$$$$###@@@@@@@@@@@@@@@@@@@@@@@@###$$$$$$$$$$$$Xoooo",
"    o$$$$$$$$$$$$###@@@@@@@@@@@@@@@@@@@@@@@@###$$$$$$$$$$$$Xoooo",
"    o$$$$$$$$$$$$###@@@@@@@@@@@@@@@@@@@@@@@@###$$$$$$$$$$$$oXXXX",
"    o$$$$$$$$$$$$###@@@@%%%%%%%%%%%%%%%%@@@@###$$$$$$$$$$$$oXXXX",
"    o$$$$$$$$$$$$###@@@@%%%%%%%%%%%%%%%%@@@@###$$$$$$$$$$$$oXXXX",
"    o$$$$$$$$$$$$###@@@@%%%%%%%%%%%%%%%%@@@@###$$$$$$$$$$$$oXXXX",
"    o$$$$$$$$$$$$###@@@@%%%%%%%%%%%%%%%%@@@@###$$$$$$$$$$$$oXXXX",
"    oooo....oooo    XXXXXXXXoooo    ooooXXXXXXXX    ooooooooXXXX",
"    oooo....oooo    XXXXXXXXoooo    ooooXXXXXXXX    ooooooooXXXX",
"    oooo....oooo    XXXXXXXXoooo    ooooXXXXXXXX    ooooooooXXXX",
"    XXXXXXXX....    ooooXXXXoooo    ooooXXXXoooo    ooooXXXXXXXX",
"    XXXXXXXX....    ooooXXXXoooo    ooooXXXXoooo    ooooXXXXXXXX",
"    XXXXXXXX....    ooooXXXXoooo    ooooXXXXoooo    ooooXXXXXXXX",
"    XXXXXXXX....    ooooXXXXoooo    ooooXXXXoooo    ooooXXXXXXXX",
"    XXXXXXXXoooo    ooooXXXXoooo    ooooXXXXoooo    ooooXXXXoooo",
"    XXXXXXXXoooo    ooooXXXXoooo    ooooXXXXoooo    ooooXXXXoooo",
"    XXXXXXXXoooo    ooooXXXXoooo    ooooXXXXoooo    ooooXXXXoooo",
"    XXXXXXXXoooo    ooooXXXXoooo    ooooXXXXoooo    ooooXXXXoooo"
};
