/* XPM */
static char *result[] = {
/* columns rows colors chars-per-pixel */
"64 64 76 1 ",
"  c #5F362C",
". c #5F372C",
"X c #5F362D",
"o c #5F372D",
"O c #60362C",
"+ c #60372C",
"@ c #60362D",
"# c #60372D",
"$ c #663B30",
"% c #673B30",
"& c #663B31",
"* c #673B31",
"= c #663C30",
"- c #673C30",
"; c #663C31",
": c #673C31",
"> c #774538",
", c #774539",
"< c #774638",
"1 c #774639",
"2 c #784538",
"3 c #784539",
"4 c #784638",
"5 c #784639",
"6 c #745C56",
"7 c #755C56",
"8 c #745D56",
"9 c #755D56",
"0 c #745C57",
"q c #755C57",
"w c #745D57",
"e c #755D57",
"r c #824A3B",
"t c #834A3B",
"y c #824B3B",
"u c #834B3B",
"i c #824A3C",
"p c #834A3C",
"a c #824B3C",
"s c #834B3C",
"d c #955243",
"f c #955343",
"g c #965243",
"h c #965343",
"j c #955244",
"k c #955344",
"l c #965244",
"z c #965344",
"x c #A65746",
"c c #A75746",
"v c #A65747",
"b c #A75747",
"n c #A65846",
"m c #A75846",
"M c #A65847",
"N c #A75847",
"B c #876F68",
"V c #876F69",
"C c #886F68",
"Z c #886F69",
"A c #877068",
"S c #877069",
"D c #887068",
"F c #887069",
"G c #8B7A74",
"H c #8B7B74",
"J c #8B7A75",
"K c #8B7B75",
"L c #8C7A74",
"P c #8C7B74",
"I c #8C7A75",
"U c #8D7A75",
"Y c #8C7B75",
"T c #8D7A76",
"R c #8C7B76",
"E c #8D7B76",
/* pixels */
"lggggggzuusuewwwNmmmmmmNnmcNgggglglgggglusysAAAANcNczzzzzgzgzzzz",
"gghzzzzhussse00eNNNNNNNNNNNNzzzzzzzzzzzzssssFFFFNNNNzzzzzzzzzzzz",
"jfzzzzzzsppp9ee9MNNNNNNMMNMMzzzffzzzzzzftyyyFFFSNMMMhhhzzhhhhhhz",
"zhhghzhhussse669mnnnnmnmmnNmkkkzzjjjkkkzspppZZZFNNmNzzzzzzzzzzzz",
"upassssu4454FVVF;=$=4445supspspuspspspss<454SSSS;;=;sssayssssssy",
"ssyssssu4555SVVF;;$;4545stsspppuussspppu<454SSSS*;=;sssuyssssssy",
"upassssu4454FVVF;=$=4445supspspuspspspss<454SSSS;;=;sssayssssssy",
"yyssuuus5454FDFB%---444<ysuuyuyssuuuuyus5<<<CBCF:$%$sssssuuussss",
"%--$+++..+O+YPPL.++++++.<4<<4<4<%%%%+++.o+++BBBF.+++454<%%%%:::%",
"%:%-###++   JHHI########55555555;:::### O###FFFB ###5555;;;;;;;;",
"*:%:###++o@oJPPJ@++++++@35555555;:::###OO###FFFVO###5555;;;;;;;;",
"%:%-###++   JHHI########55555555;:::### O###FFFB ###5555;;;;;;;;",
"9e9e9e9eFZZZJHHIFFFF8w8ee9eee9e99eeeFFFVVFFFYKYJVFFF999ee999999e",
"w0e00000DDDDPPPJZDFD000q7000000ee000CCCFFCCCPHPYFCCC0000q000000q",
"00w00000FFDFYPPJZDDD0000q000000ee000CCCFDCCCHHHYFCCC000ee000000e",
"8e99eee6SFFFJJJISCZC77799999eee89999FFFVVSSSIIIGVSSS9e9789e9e9e8",
"MmnnNNNxzjjjjjjkirrrjjjkprriFFFFNnnnjjjlldddjjjlarirjjjdriiie9e9",
"nmNnnnnNhllllzzkrssszzzjrsyyZZZFNnnnzzzzzzzzzzzzuyyyzzzzsuuueeee",
"NmNvnnnNzllllzzlyssszzzlysyyZZZFNmmmkkkzzzzzkkkzuyyyzzzzsuuu777e",
"nmNnnnnNhllllzzkrssszzzjrsyyZZZFNnnnzzzzzzzzzzzzuyyyzzzzsuuueeee",
"%-::sssssssssssyasss5552$:-%CCCF:-%-><>55>2><><552>21<155121AAAD",
"%%:;uuussssssssaysss555>=:%$CCCD:%$%>>>55>>>>>>55>>>1<1551>1AAAD",
"%-::sssssssssssyasss5552$:-%CCCF:-%-><>55>2><><552>21<155121AAAD",
";:&;spspuiripiipirrr2425:$&;FFFF;&;&55555515555551515554>555FFFZ",
"$;=&555<ttpt;$-&&%$%$-$& +##IIIG ###### $&&&555>2111;;;$ +++FFFS",
"%%:$<<<4saaa;::$$::::::$##  GGGY#      #%$$$>>>11>>>%%%:####FFFF",
"::$&555<usus:-*&&***-*-&# ##IIIY########:;&;55555151::::O###FFFC",
"::%:454>usss:$$&;$$$$$$;#o##IIIY########::::55555555:::*O###FFFC",
"DFCF8e800ewee08ee777CCCFFCSSYLYYFSSSSSSFeqeqeweeeeqeeee0CFFFYIYH",
"AFDF99900eee9679eq6qZZZFFZSSIIIIFSSSSSSFeeweeeeeeweweee0CFFFIIIJ",
"DFCF8e800ewee08ee777CCCFFCSSYLYYFSSSSSSFeqeqeweeeeqeeee0CFFFYIYH",
"DDSF9w9009999ee89q0qFFFCCSFFYYYYAFFFFFFA9eeeqeq98eee808eSCZCLPLI",
"zlzzhhhzspppVFDFNNNNNNNNNNNNzzzl2555zzzl<555FFFCcNNNbbbNzlklzlzz",
"zhzkhzhhususFCCSNNNNNNNNMNMMgggz5151gggz5515SSSFNMMMNNNNjzzzzzzj",
"lzzzzzzzusssFCCSMmmmmmmMMmNNhfhz5555fhfz5555SSSFNNNNNNNMjzzzzzzj",
"zhzkhzhhususFCCSNNNNNNNNMNMMgggz5151gggz5515SSSFNMMMNNNNjzzzzzzj",
"rayiaiau<555FZZF5>>>>>>55>55111555551115::;:SSSF:;:;555,,555555,",
"aayatuty2555FCCF5>>>><>55>55111555551115:;;;SSSF:;;;555,,555555,",
"rayiaiau<555FZZF5>>>>>>55>55111555551115::;:SSSF:;:;555,,555555,",
"ssusssss5434VFDF51>155555>55555<25555552$:::FFFC=:::535555553535",
"-;::&*&%.@O@ZFFC$&*&:::$<155555<%;:;:::% ###YYYY ###$$$&&=$=$$$&",
"::%:===%+###FCCS;$$$$$$;1>555555::::;;;:####IIIY####:::*::::::::",
"::$&;;;$+###FCCS&***-*-&1>155555:&;&;;;:####IIIY####::::*::::::*",
"::%:===%+###FCCS;$$$$$$;1>555555::::;;;:####IIIY####:::*::::::::",
"e9weFFFCCFFFYHLIFCCC080ee7eqeweeeeqeweweFSSSYLYYFSSSeee00eeeeee0",
"8ee9FFFBBFDFIGJIFZZZ676e96weeeeeeweweeeeFSSSIIIIFSSSeee0qeeeeeeq",
"e9weFFFCCFFFYHLIFCCC080ee7eqeweeeeqeweweFSSSYLYYFSSSeee00eeeeee0",
"0wweFFFAABVBJYYLCSSSeee980eeqeq98eeeeqe8AFFFYYYYAFFF808ee808080e",
"zlzzNNNNNccccNNN51>1NNNNlhzzeee8cNNNzzzllzzzzzzl2555bbbNzlklCCCF",
"zhzkbbbmmNNNNNNM1>>>NNNNdzggeeeeNMMMgggzzggggggz5151NNNNjzzzFFFC",
"lzzzNNNMMNNNmmmM5>>>mmmMgzhheeeeNNNNfhfzzhhhhfhz5555NNNMjzzzFFFC",
"zhzkbbbmmNNNNNNM1>>>NNNNdzggeeeeNMMMgggzzggggggz5151NNNNjzzzFFFC",
"sprs44444555511551111115auasFFFCuasa555,,555555,,555<<<5ssssCCCF",
"usus111553335,,55<<<,,,5auaaFFFZtaaa555,,555555,,555<<<5ssssCCCF",
"sprs44444555511551111115auasFFFCuasa555,,555555,,555<<<5ssssCCCF",
"ypsa44433515555155555555rsiiCCCFsiii22255454222555455554sptpFFFF",
"-::=yuyuuuuusssrrssssssr.#OOLLLIXOOOrtruuptptrtuutptsssr ###IYIL",
"%:*:sssuuiiiiuuiiuuuuuui#+##YYYP ###aaaussssaaasusssppps#   LLLI",
"::**sssuuiiiisuiiuuususi####YYYPO###aaasupppaaauspppsssu# O PPPI",
"%:*:sssuuiiiiuuiiuuuuuui#+##YYYP ###aaaussssaaasusssppps#   LLLI",
"DFDSeeeee7679wwqq999wwwqFDFFYYYGZFFFFFFZ0eeeeee00eeeCCCFYLPLPLYE",
"FVDF999ee7779qq9eqqqqqqeFSFFYYYHCFFFFFFC8eeeeee88eeeCCCFYPPPPYRE",
"DFDSeeeee7679wwqq999wwwqFDFFYYYGZFFFFFFZ0eeeeee00eeeCCCFYLPLYTEE",
"DFFVwww00999eqqeqeeeqqqqSFCCLLLISCCCCCCSeqqq000e9qqqFFFCLIIITETU"
};
